<svg xmlns="http://www.w3.org/2000/svg" width="1000" height="1000" style="isolation:isolate">
  <path fill="#a60000" d="M57.803 360.359L360.359 57.803c77.07-77.071 202.212-77.071 279.282 0l302.556 302.556c77.071 77.07 77.071 202.212 0 279.282L639.641 942.197c-77.07 77.071-202.212 77.071-279.282 0L57.803 639.641c-77.071-77.07-77.071-202.212 0-279.282z"/>
  <path fill="#EFEFEF" d="M808.004 547.735l-23.07 23.07-9.448-9.447q12.049-14.65 14.274-22.967 2.225-8.318-6.538-22.284l9.721-9.721 97.621 97.622-13.144 13.144-69.416-69.417zm49.933-107.164q19.032-19.031 43.197-11.843 18.689 5.545 39.774 26.63 19.99 19.99 27.11 39.021 10.132 27.383-9.447 46.962-17.663 17.662-41.623 10.953-19.99-5.613-41.554-27.177-16.704-16.704-24.371-32.997-14.239-30.396 6.914-51.549zm89.338 89.611q9.584-9.584 6.777-23.754-2.806-14.171-25.945-37.31-16.704-16.704-31.594-23.379-14.889-6.674-26.732 5.169-10.885 10.885-5.682 26.151 5.202 15.266 25.124 35.187 14.992 14.993 27.314 20.88 18.826 8.968 30.738-2.944z"/>
</svg>
